<svg aria-hidden="true" style="position: absolute; width: 0; height: 0; overflow: hidden;" version="1.1" xmlns="http://www.w3.org/2000/svg" xmlns:xlink="http://www.w3.org/1999/xlink">
    <defs>
        <symbol id="linkedin" viewBox="0 0 32 32">
            <path d="M31.992 32v-0.001h0.008v-11.736c0-5.741-1.236-10.164-7.948-10.164-3.227 0-5.392 1.771-6.276 3.449h-0.093v-2.913h-6.364v21.364h6.627v-10.579c0-2.785 0.528-5.479 3.977-5.479 3.399 0 3.449 3.179 3.449 5.657v10.401h6.62z"></path>
            <path d="M0.528 10.636h6.635v21.364h-6.635v-21.364z"></path>
            <path d="M3.843 0c-2.121 0-3.843 1.721-3.843 3.843s1.721 3.879 3.843 3.879c2.121 0 3.843-1.757 3.843-3.879-0.001-2.121-1.723-3.843-3.843-3.843v0z"></path>
        </symbol>

        <symbol id="facebook" viewBox="0 0 32 32">
            <path d="M21.33 5.313h2.921v-5.088c-0.504-0.069-2.237-0.225-4.256-0.225-4.212 0-7.097 2.649-7.097 7.519v4.481h-4.648v5.688h4.648v14.312h5.699v-14.311h4.46l0.708-5.688h-5.169v-3.919c0.001-1.644 0.444-2.769 2.735-2.769z"></path>
        </symbol>

        <symbol id="twitter" viewBox="0 0 32 32">
            <path d="M32 6.078c-1.19 0.522-2.458 0.868-3.78 1.036 1.36-0.812 2.398-2.088 2.886-3.626-1.268 0.756-2.668 1.29-4.16 1.588-1.204-1.282-2.92-2.076-4.792-2.076-3.632 0-6.556 2.948-6.556 6.562 0 0.52 0.044 1.020 0.152 1.496-5.454-0.266-10.28-2.88-13.522-6.862-0.566 0.982-0.898 2.106-0.898 3.316 0 2.272 1.17 4.286 2.914 5.452-1.054-0.020-2.088-0.326-2.964-0.808 0 0.020 0 0.046 0 0.072 0 3.188 2.274 5.836 5.256 6.446-0.534 0.146-1.116 0.216-1.72 0.216-0.42 0-0.844-0.024-1.242-0.112 0.85 2.598 3.262 4.508 6.13 4.57-2.232 1.746-5.066 2.798-8.134 2.798-0.538 0-1.054-0.024-1.57-0.090 2.906 1.874 6.35 2.944 10.064 2.944 12.072 0 18.672-10 18.672-18.668 0-0.29-0.010-0.57-0.024-0.848 1.302-0.924 2.396-2.078 3.288-3.406z"></path>
        </symbol>

        <symbol id="instagram" viewBox="0 0 32 32">
            <path d="M31.969 9.408c-0.075-1.7-0.35-2.869-0.744-3.882-0.406-1.075-1.032-2.038-1.851-2.838-0.8-0.813-1.769-1.444-2.832-1.844-1.019-0.394-2.182-0.669-3.882-0.744-1.713-0.081-2.257-0.1-6.601-0.1s-4.888 0.019-6.595 0.094c-1.7 0.075-2.869 0.35-3.882 0.744-1.075 0.406-2.038 1.031-2.838 1.85-0.813 0.8-1.444 1.769-1.844 2.832-0.394 1.019-0.669 2.182-0.744 3.882-0.081 1.713-0.1 2.257-0.1 6.601s0.019 4.888 0.094 6.595c0.075 1.7 0.35 2.869 0.744 3.882 0.406 1.075 1.038 2.038 1.85 2.838 0.8 0.813 1.769 1.444 2.832 1.844 1.019 0.394 2.182 0.669 3.882 0.744 1.706 0.075 2.25 0.094 6.595 0.094s4.888-0.019 6.595-0.094c1.7-0.075 2.869-0.35 3.882-0.744 2.151-0.832 3.851-2.532 4.682-4.682 0.394-1.019 0.669-2.182 0.744-3.882 0.075-1.707 0.094-2.251 0.094-6.595s-0.006-4.888-0.081-6.595zM29.087 22.473c-0.069 1.563-0.331 2.407-0.55 2.969-0.538 1.394-1.644 2.5-3.038 3.038-0.563 0.219-1.413 0.481-2.969 0.55-1.688 0.075-2.194 0.094-6.464 0.094s-4.782-0.019-6.464-0.094c-1.563-0.069-2.407-0.331-2.969-0.55-0.694-0.256-1.325-0.663-1.838-1.194-0.531-0.519-0.938-1.144-1.194-1.838-0.219-0.563-0.481-1.413-0.55-2.969-0.075-1.688-0.094-2.194-0.094-6.464s0.019-4.782 0.094-6.464c0.069-1.563 0.331-2.407 0.55-2.969 0.256-0.694 0.663-1.325 1.2-1.838 0.519-0.531 1.144-0.938 1.838-1.194 0.563-0.219 1.413-0.481 2.969-0.55 1.688-0.075 2.194-0.094 6.464-0.094 4.276 0 4.782 0.019 6.464 0.094 1.563 0.069 2.407 0.331 2.969 0.55 0.694 0.256 1.325 0.662 1.838 1.194 0.531 0.519 0.938 1.144 1.194 1.838 0.219 0.563 0.481 1.413 0.55 2.969 0.075 1.688 0.094 2.194 0.094 6.464s-0.019 4.77-0.094 6.458z"></path>
            <path d="M16.059 7.783c-4.538 0-8.22 3.682-8.22 8.22s3.682 8.22 8.22 8.22c4.539 0 8.22-3.682 8.22-8.22s-3.682-8.22-8.22-8.22zM16.059 21.336c-2.944 0-5.332-2.388-5.332-5.332s2.388-5.332 5.332-5.332c2.944 0 5.332 2.388 5.332 5.332s-2.388 5.332-5.332 5.332z"></path>
            <path d="M26.524 7.458c0 1.060-0.859 1.919-1.919 1.919s-1.919-0.859-1.919-1.919c0-1.060 0.859-1.919 1.919-1.919s1.919 0.859 1.919 1.919z"></path>
        </symbol>

        <symbol id="location" viewBox="0 0 32 32">
            <path d="M16 0c-5.523 0-10 4.477-10 10 0 10 10 22 10 22s10-12 10-22c0-5.523-4.477-10-10-10zM16 16c-3.314 0-6-2.686-6-6s2.686-6 6-6 6 2.686 6 6-2.686 6-6 6z"></path>
        </symbol>

        <symbol id="phone" viewBox="0 0 32 32">
            <path d="M22 20c-2 2-2 4-4 4s-4-2-6-4-4-4-4-6 2-2 4-4-4-8-6-8-6 6-6 6c0 4 4.109 12.109 8 16s12 8 16 8c0 0 6-4 6-6s-6-8-8-6z"></path>
        </symbol>

        <symbol id="mail" viewBox="0 0 32 32">
            <path d="M15.996 15.457l16.004-7.539v-3.918h-32v3.906zM16.004 19.879l-16.004-7.559v15.68h32v-15.656z"></path>
        </symbol>

        <symbol id="logo" viewBox="0 0 39 32">
            <path d="M21.575 8.435l-0.655-0.5c-0.102-0.083-0.233-0.122-0.364-0.109s-0.252 0.077-0.336 0.179l-9.065 10.41 0.14 0.155 2.245-2.070c-0.075-0.030-0.137-0.085-0.175-0.156s-0.050-0.153-0.034-0.232c0.016-0.079 0.059-0.15 0.122-0.2s0.142-0.077 0.222-0.076c0.073 0 0.143 0.023 0.202 0.066s0.102 0.104 0.123 0.173l2.96-2.745c0.045-0.037 0.102-0.056 0.16-0.056s0.115 0.020 0.16 0.056l0.15 0.11c0.051 0.036 0.113 0.052 0.175 0.045s0.119-0.038 0.16-0.085l3.87-4.34c0.041-0.043 0.073-0.095 0.092-0.151s0.027-0.116 0.021-0.175-0.024-0.117-0.054-0.168c-0.030-0.052-0.070-0.096-0.119-0.131z"></path>
            <path d="M25.835 11.365c-1.984 1.412-4.206 2.453-6.56 3.075-2.336 0.594-4.727 0.949-7.135 1.060 0.049 0.355 0.136 0.704 0.26 1.040 1.36 1.23 11.6-0.87 13.6-3.3 0.425-0.505-0.165-1.875-0.165-1.875zM13.675 16.5c-0.067 0-0.133-0.020-0.189-0.057s-0.1-0.090-0.125-0.153c-0.026-0.062-0.032-0.131-0.019-0.196s0.046-0.127 0.093-0.174 0.108-0.080 0.174-0.093c0.066-0.013 0.134-0.006 0.196 0.019s0.115 0.069 0.153 0.125 0.057 0.122 0.057 0.189c0.001 0.045-0.008 0.089-0.024 0.131s-0.042 0.079-0.074 0.111c-0.032 0.032-0.069 0.057-0.111 0.074s-0.086 0.025-0.131 0.024z"></path>
            <path d="M4 10.645l0.080-0.345 1.3 0.295c0.107 0.198 0.174 0.416 0.195 0.64 0.025 0.238 0.010 0.478-0.045 0.71-0.065 0.323-0.213 0.623-0.43 0.87-0.206 0.234-0.473 0.406-0.77 0.5-0.306 0.095-0.632 0.107-0.945 0.035-0.313-0.068-0.602-0.22-0.835-0.44-0.229-0.211-0.394-0.484-0.475-0.785-0.090-0.327-0.090-0.673 0-1 0.054-0.245 0.15-0.479 0.285-0.69 0.128-0.192 0.299-0.352 0.5-0.465l0.18 0.275c-0.172 0.106-0.32 0.247-0.434 0.414s-0.191 0.357-0.226 0.556c-0.062 0.259-0.057 0.529 0.015 0.785 0.067 0.243 0.2 0.463 0.385 0.635 0.19 0.183 0.427 0.31 0.685 0.365 0.25 0.070 0.515 0.070 0.765 0 0.24-0.079 0.455-0.219 0.625-0.405 0.175-0.201 0.295-0.444 0.35-0.705 0.082-0.317 0.061-0.651-0.060-0.955l-1.145-0.29z"></path>
            <path d="M6.83 7.5l-1.165 1.555 0.5 0.895-0.23 0.31-1.85-3.375 0.215-0.295 3.765 0.81-0.235 0.31-1-0.21zM6.5 7.42l-2-0.45 1 1.795 1-1.345z"></path>
            <path d="M6.5 4.275l0.3-0.225 1.905 2.55 1.57-1.175 0.19 0.255-1.865 1.395-2.1-2.8z"></path>
            <path d="M9.65 2.19l0.335-0.15 1.32 2.89 1.785-0.81 0.13 0.29-2.12 0.965-1.45-3.185z"></path>
            <path d="M16.24 3.34l0.075 0.315-2.41 0.565-0.8-3.41 2.34-0.545 0.070 0.31-2 0.465 0.285 1.21 1.76-0.415 0.075 0.31-1.765 0.41 0.3 1.265 2.070-0.48z"></path>
            <path d="M19.675 3.465l-0.835-1.1c-0.093 0.005-0.187 0.005-0.28 0l-0.94 0.030 0.035 1.11h-0.37l-0.115-3.5 1.33-0.005c0.376-0.035 0.752 0.066 1.060 0.285 0.13 0.104 0.234 0.237 0.305 0.388s0.107 0.316 0.105 0.482c0.015 0.247-0.050 0.492-0.185 0.7-0.144 0.199-0.347 0.348-0.58 0.425l0.875 1.17-0.405 0.015zM19.325 1.82c0.090-0.082 0.16-0.184 0.204-0.298s0.062-0.236 0.051-0.357c0.003-0.122-0.023-0.243-0.074-0.354s-0.127-0.209-0.221-0.286c-0.23-0.156-0.508-0.229-0.785-0.205l-0.95 0.035 0.060 1.75 0.93-0.030c0.284 0.010 0.562-0.080 0.785-0.255z"></path>
            <path d="M22.32 2.535l-0.18 1.195-0.365-0.055 0.185-1.175-1.035-2.5 0.39 0.060 0.885 2.13 1.5-1.765 0.35 0.075-1.73 2.035z"></path>
            <path d="M27.265 2.325l0.435 0.565-0.19 0.15-0.435-0.58-0.275 0.655-0.21-0.090 0.28-0.655-0.72 0.095v-0.24l0.71-0.080-0.44-0.565 0.195-0.15 0.385 0.57 0.27-0.66 0.215 0.090-0.255 0.67 0.72-0.1v0.245l-0.685 0.080z"></path>
            <path d="M28.935 6.355c-0.118-0.182-0.192-0.389-0.215-0.605l0.295-0.13c0.022 0.198 0.087 0.389 0.19 0.56 0.112 0.191 0.257 0.361 0.43 0.5 0.178 0.171 0.406 0.281 0.65 0.315 0.088 0.008 0.177-0.005 0.259-0.039s0.154-0.087 0.211-0.156c0.041-0.046 0.073-0.1 0.093-0.158s0.027-0.12 0.022-0.182c-0.017-0.122-0.057-0.239-0.12-0.345-0.094-0.153-0.196-0.302-0.305-0.445-0.133-0.174-0.253-0.358-0.36-0.55-0.081-0.144-0.126-0.305-0.13-0.47-0-0.185 0.069-0.364 0.195-0.5 0.109-0.132 0.253-0.231 0.415-0.285 0.181-0.052 0.374-0.052 0.555 0 0.234 0.076 0.45 0.199 0.635 0.36 0.154 0.128 0.29 0.276 0.405 0.44 0.106 0.152 0.186 0.321 0.235 0.5l-0.285 0.15c-0.050-0.167-0.124-0.325-0.22-0.47-0.096-0.129-0.208-0.245-0.335-0.345-0.176-0.17-0.402-0.277-0.645-0.305-0.089-0.007-0.179 0.007-0.261 0.043s-0.154 0.091-0.209 0.162c-0.043 0.045-0.075 0.099-0.095 0.157s-0.027 0.121-0.020 0.183c0.012 0.126 0.053 0.248 0.12 0.355 0.070 0.115 0.17 0.265 0.305 0.445 0.134 0.17 0.254 0.351 0.36 0.54 0.083 0.143 0.13 0.305 0.135 0.47 0 0.185-0.069 0.364-0.195 0.5-0.109 0.134-0.255 0.233-0.42 0.285-0.181 0.055-0.374 0.055-0.555 0-0.235-0.076-0.453-0.199-0.64-0.36-0.202-0.176-0.371-0.386-0.5-0.62z"></path>
            <path d="M33.965 7.085l-0.705-1 0.26-0.185 1.625 2.32-0.26 0.185-0.705-1-2.61 1.825-0.21-0.305 2.605-1.84z"></path>
            <path d="M32.845 11.195c0.089-0.302 0.263-0.573 0.5-0.78 0.232-0.208 0.515-0.351 0.82-0.415 0.311-0.071 0.635-0.059 0.94 0.035 0.294 0.097 0.558 0.27 0.765 0.5 0.215 0.248 0.362 0.548 0.425 0.87 0.083 0.316 0.083 0.649 0 0.965-0.092 0.301-0.265 0.571-0.5 0.78-0.239 0.213-0.528 0.362-0.841 0.43s-0.638 0.055-0.944-0.040c-0.296-0.093-0.561-0.266-0.765-0.5-0.214-0.246-0.361-0.545-0.425-0.865-0.076-0.323-0.068-0.661 0.025-0.98zM33.5 12.785c0.167 0.19 0.383 0.33 0.625 0.405 0.249 0.072 0.513 0.081 0.766 0.025s0.489-0.175 0.684-0.345c0.185-0.17 0.321-0.385 0.395-0.625 0.070-0.253 0.077-0.519 0.020-0.775s-0.175-0.495-0.345-0.695c-0.174-0.191-0.397-0.331-0.645-0.405-0.252-0.067-0.518-0.067-0.77 0-0.255 0.049-0.49 0.168-0.68 0.345-0.186 0.17-0.323 0.388-0.395 0.63-0.068 0.254-0.068 0.521 0 0.775 0.055 0.248 0.174 0.477 0.345 0.665z"></path>
            <path d="M32.465 17l1.295-0.5c0-0.090 0.030-0.18 0.055-0.275l0.245-0.905-1.060-0.275 0.095-0.355 3.38 0.905-0.34 1.265c-0.077 0.369-0.282 0.699-0.58 0.93-0.137 0.095-0.294 0.157-0.459 0.181s-0.333 0.010-0.491-0.041c-0.241-0.052-0.458-0.185-0.613-0.377s-0.241-0.431-0.242-0.678l-1.38 0.5 0.095-0.375zM34.14 17.14c0.059 0.106 0.138 0.2 0.234 0.274s0.205 0.129 0.322 0.161c0.117 0.031 0.24 0.039 0.36 0.021s0.236-0.058 0.339-0.121c0.221-0.177 0.371-0.427 0.425-0.705l0.24-0.9-1.695-0.455-0.24 0.9c-0.092 0.268-0.087 0.56 0.015 0.825z"></path>
            <path d="M30.67 20.22l-0.255-0.195 1.5-1.975 2.79 2.115-1.45 1.915-0.255-0.195 1.225-1.615-1-0.755-1.095 1.445-0.25-0.19 1.12-1.445-1.035-0.785-1.295 1.68z"></path>
            <path d="M29.5 24.205l-0.715 0.040v-0.24l0.715-0.005-0.385-0.595 0.195-0.125 0.38 0.6 0.31-0.67 0.215 0.115-0.34 0.63 0.715-0.040v0.245h-0.725l0.385 0.595-0.195 0.125-0.38-0.6-0.33 0.65-0.21-0.12 0.365-0.605z"></path>
            <path d="M23 23.805l0.605 0.335c0.101-0.195 0.243-0.366 0.415-0.502s0.372-0.234 0.585-0.288c0.199-0.062 0.408-0.084 0.615-0.065 0.18 0.014 0.353 0.076 0.5 0.18 0.133 0.1 0.231 0.24 0.28 0.4 0.060 0.197 0.050 0.41-0.030 0.6-0.125 0.259-0.295 0.494-0.5 0.695 0.165 0.089 0.318 0.198 0.455 0.325 0.094 0.097 0.165 0.216 0.205 0.345 0.026 0.101 0.027 0.206 0.005 0.308s-0.069 0.197-0.135 0.277c-0.133 0.192-0.333 0.329-0.56 0.385-0.2 0.076-0.42 0.076-0.62 0-0.089-0.038-0.168-0.096-0.23-0.17s-0.107-0.161-0.13-0.255c-0.052-0.165-0.040-0.344 0.035-0.5 0.115-0.227 0.265-0.435 0.445-0.615l-1.205-0.67c-0.046 0.235-0.056 0.477-0.030 0.715h-0.305c-0.020-0.294 0.013-0.589 0.1-0.87l-0.63-0.35 0.13-0.28zM23.87 24.305l1.325 0.735c0.174-0.166 0.317-0.36 0.425-0.575 0.055-0.145 0.055-0.305 0-0.45-0.023-0.087-0.067-0.166-0.128-0.232s-0.138-0.115-0.222-0.143c-0.208-0.070-0.432-0.070-0.64 0-0.17 0.045-0.327 0.126-0.462 0.238s-0.243 0.253-0.318 0.412l0.020 0.015zM25.75 26.305c0.033-0.055 0.053-0.117 0.060-0.181s0-0.128-0.020-0.189c-0.031-0.099-0.086-0.188-0.16-0.26-0.127-0.107-0.267-0.2-0.415-0.275-0.152 0.15-0.284 0.318-0.395 0.5-0.060 0.114-0.075 0.246-0.040 0.37 0.016 0.057 0.044 0.11 0.082 0.156s0.085 0.083 0.138 0.109c0.127 0.048 0.268 0.048 0.395 0 0.136-0.036 0.255-0.119 0.335-0.235l0.020 0.005z"></path>
            <path d="M16.905 27.66l0.070-3.5h0.355l-0.055 2.8 1.42-2.33h0.175l1.33 2.37 0.050-2.785h0.355l-0.065 3.5h-0.305l-1.47-2.615-1.555 2.565-0.305-0.005z"></path>
            <path d="M15.165 24c0.229 0.218 0.392 0.495 0.473 0.8s0.074 0.627-0.018 0.93c-0.082 0.309-0.246 0.591-0.475 0.815-0.222 0.218-0.501 0.371-0.805 0.44-0.321 0.072-0.654 0.062-0.97-0.030-0.315-0.077-0.604-0.234-0.84-0.455-0.225-0.215-0.386-0.489-0.465-0.79-0.077-0.312-0.071-0.638 0.016-0.946s0.254-0.589 0.484-0.814c0.218-0.218 0.491-0.373 0.79-0.45 0.319-0.072 0.651-0.062 0.965 0.030 0.318 0.081 0.609 0.242 0.845 0.47zM13.46 23.825c-0.245 0.057-0.468 0.182-0.645 0.36-0.184 0.183-0.315 0.413-0.38 0.665-0.070 0.25-0.070 0.515 0 0.765 0.059 0.243 0.185 0.465 0.365 0.64 0.188 0.184 0.421 0.317 0.675 0.385 0.254 0.065 0.521 0.065 0.775 0 0.245-0.060 0.469-0.184 0.65-0.36 0.183-0.184 0.314-0.414 0.38-0.665 0.070-0.252 0.070-0.518 0-0.77-0.064-0.243-0.192-0.464-0.37-0.64-0.189-0.184-0.424-0.315-0.68-0.38-0.252-0.070-0.518-0.070-0.77 0z"></path>
            <path d="M9.675 21.5l0.135 1.375c0.086 0.037 0.169 0.078 0.25 0.125l0.815 0.47 0.55-0.97 0.325 0.185-1.75 3.015-1.14-0.655c-0.337-0.169-0.603-0.453-0.75-0.8-0.054-0.156-0.073-0.323-0.054-0.488s0.075-0.323 0.164-0.462c0.116-0.219 0.3-0.395 0.525-0.5 0.228-0.094 0.48-0.114 0.72-0.055l-0.145-1.47 0.355 0.23zM9.105 23.080c-0.117 0.029-0.228 0.082-0.324 0.155s-0.177 0.165-0.238 0.27c-0.060 0.105-0.099 0.221-0.113 0.341s-0.004 0.242 0.030 0.358c0.117 0.259 0.32 0.469 0.575 0.595l0.805 0.465 0.875-1.5-0.805-0.465c-0.231-0.173-0.516-0.26-0.805-0.245v0.025z"></path>
            <path d="M6.715 19.155l0.225-0.225 1.725 1.775-2.5 2.44-1.665-1.72 0.23-0.225 1.415 1.455 0.855-0.865-1.24-1.29 0.24-0.23 1.265 1.3 0.93-0.905-1.48-1.51z"></path>
            <path d="M3 17.19l0.12-0.69 0.235 0.035-0.135 0.71 0.665-0.245 0.080 0.22-0.675 0.23 0.555 0.47-0.16 0.18-0.535-0.5-0.125 0.71-0.24-0.045 0.14-0.71-0.67 0.24-0.075-0.195 0.67-0.235-0.555-0.465 0.165-0.18 0.54 0.47z"></path>
        </symbol>

        <symbol id="menu_hamburger" viewBox="0 0 32 32">
            <path d="M6.4 11.733v-2.133h19.2v2.133h-19.2zM6.4 17.067h19.2v-2.133h-19.2v2.133zM6.4 22.4h19.2v-2.133h-19.2v2.133z"></path>
        </symbol>

        <symbol id="close" viewBox="0 0 32 32">
            <path d="M23.733 10.304l-1.504-1.504-5.963 5.963-5.963-5.963-1.504 1.504 5.963 5.963-5.963 5.963 1.504 1.504 5.963-5.963 5.963 5.963 1.504-1.504-5.963-5.963 5.963-5.963z"></path>
        </symbol>
    </defs>
</svg>
